<svg xmlns="http://www.w3.org/2000/svg" xmlns:xlink="http://www.w3.org/1999/xlink" id="Layer_1" x="0px" y="0px" width="16px" height="16px" viewBox="0 0 16 16" style="enable-background:new 0 0 16 16;" xml:space="preserve"><style type="text/css">	.st0{fill:url(#SVGID_1_);}	.st1{fill:url(#SVGID_00000076591234685142995470000004644410711081271190_);}	.st2{fill:url(#SVGID_00000006674702537038529850000015640515142187589564_);}	.st3{fill:url(#SVGID_00000034059294300208697640000013146804965820354971_);}	.st4{fill:url(#SVGID_00000013895271736431588770000008262183221281142454_);}	.st5{fill:url(#SVGID_00000057145621901894039990000017894984215050728078_);}	.st6{fill:url(#SVGID_00000180333875267786342180000011585209675548570773_);}	.st7{fill:url(#SVGID_00000012433174092733456000000017532519930536727203_);}	.st8{fill:url(#SVGID_00000085226327537922575800000003003413338930106518_);}	.st9{fill:url(#SVGID_00000026122503941267300810000010573964776179050684_);}	.st10{fill:url(#SVGID_00000112631226988439568790000004339230503821385402_);}	.st11{fill:#804B24;}	.st12{fill:url(#SVGID_00000157266466817334605350000003287707027028302780_);}	.st13{fill:url(#SVGID_00000018231828698728732860000005567974967228446365_);}	.st14{fill:url(#SVGID_00000171705914798693216350000010609563367920622764_);}	.st15{fill:url(#SVGID_00000178894169446794875550000013515806557205002116_);}	.st16{fill:url(#SVGID_00000074440714898876684010000009827863357219163786_);}	.st17{fill:url(#SVGID_00000030469829349624284530000004093889492405352089_);}	.st18{fill:url(#SVGID_00000064331829963714022610000012871052967773980080_);}	.st19{fill:url(#SVGID_00000183938594459664644450000008529300717993563806_);}	.st20{fill:url(#SVGID_00000129913588076994623040000014116742172888451490_);}	.st21{fill:url(#SVGID_00000027583393715125693690000007390540186461582759_);}	.st22{fill:url(#SVGID_00000018960007495899704920000010758093884063280799_);}	.st23{fill:url(#SVGID_00000134246263884892763810000009643027368622853055_);}	.st24{fill:url(#SVGID_00000006691623965116575070000010286934500386567322_);}	.st25{fill:url(#SVGID_00000085972778375089594370000013871984053930159549_);}	.st26{fill:url(#SVGID_00000165197845728399673110000014796163141856536996_);}	.st27{fill:url(#SVGID_00000103238817502808069380000018402353360301650320_);}	.st28{fill:url(#SVGID_00000127034612001603692300000017392502348509552527_);}	.st29{fill:url(#SVGID_00000161603387208676246500000017949494633910623117_);}	.st30{fill:url(#SVGID_00000140717706208188758080000017266528594820158595_);}	.st31{fill:url(#SVGID_00000164497584365636549550000005183146979747492756_);}	.st32{fill:url(#SVGID_00000124869500023312623470000013598794363029217156_);}	.st33{fill:url(#SVGID_00000014616018667643119460000012095152123709571215_);}	.st34{fill:url(#SVGID_00000006706843125038689320000002967252353594559638_);}	.st35{fill:#445800;}	.st36{fill:#8BB300;}	.st37{fill:#638000;}	.st38{fill:#EEEEEC;}			.st39{opacity:0.8;fill:none;stroke:url(#path3431_00000080888605296465213130000018386859693569733014_);stroke-linecap:round;enable-background:new    ;}	.st40{opacity:0.6;fill:url(#path3451_00000021102039571596096030000009516308393982736775_);enable-background:new    ;}	.st41{fill:#FDD888;}	.st42{fill:#BF6952;}	.st43{fill:#67757F;}	.st44{fill:#4E342E;}	.st45{fill:#9E740B;}	.st46{fill:#E2A610;}	.st47{clip-path:url(#SVGID_00000041290698644574978200000000282470943472604850_);fill:#9E740B;}	.st48{fill:#FDD835;}	.st49{fill:#84B0C1;}	.st50{fill:#B9E4EA;}	.st51{clip-path:url(#SVGID_00000092427281799948761800000001876293027705688234_);fill:#3D8192;}	.st52{fill:#FFCA28;}	.st53{fill:#DBA010;}	.st54{fill:#FFF59D;}	.st55{fill:#FFC107;}	.st56{fill:#424242;}	.st57{fill:#FFFFFF;}	.st58{fill:none;}	.st59{fill:#038103;}	.st60{fill:#FFCB4C;}	.st61{fill:#65471B;}	.st62{fill:#F19020;}	.st63{fill:url(#SVGID_00000079477354819426202900000008033676839153455806_);}	.st64{fill:url(#SVGID_00000157295334502088922190000017557567625161453706_);}	.st65{fill:url(#SVGID_00000103953979597330544540000011792281677950911891_);}	.st66{fill:url(#SVGID_00000094619663443245390490000017352782629231154848_);}	.st67{fill:url(#SVGID_00000051353530468979000420000005770537662300302229_);}	.st68{fill:url(#SVGID_00000042695047193674146650000004145984209181943697_);}	.st69{fill:url(#SVGID_00000013885726260479114710000010940731672442127295_);}	.st70{fill:url(#SVGID_00000047757261227425729030000002519436028281122225_);}	.st71{fill:url(#SVGID_00000044861874379160470780000007618064678857675690_);}	.st72{fill:url(#SVGID_00000075138693273512164900000015210970829960818338_);}	.st73{fill:url(#SVGID_00000082345755762851292650000008305215701005162393_);}	.st74{fill:url(#SVGID_00000132767229974226276150000002813134272574147459_);}	.st75{fill:url(#SVGID_00000021816305484098050270000008569721632620990622_);}	.st76{fill:url(#SVGID_00000103958131061603867550000012376976694077265548_);}	.st77{fill:url(#SVGID_00000165918184720496001460000015992894615259908527_);}	.st78{fill:url(#SVGID_00000054947830801793684300000000221190204439400345_);}	.st79{fill:url(#SVGID_00000080170620661825560180000009814384896511669938_);}	.st80{fill:url(#SVGID_00000005966533237084017900000001466149519194398390_);}	.st81{fill:url(#SVGID_00000037662853688883385780000002221767494135369116_);}	.st82{fill:url(#SVGID_00000108280093645959635160000008764401838617816255_);}	.st83{fill:url(#SVGID_00000111149192754872578820000013133816556155761314_);}	.st84{fill:url(#SVGID_00000144322850357176166350000014073945277479727009_);}	.st85{fill:url(#SVGID_00000019676142347852795030000005475198864015943089_);}	.st86{fill:url(#SVGID_00000147919948196134683560000001794082306213631151_);}	.st87{fill:url(#SVGID_00000076590162564429185540000006852563544045471653_);}	.st88{fill:url(#SVGID_00000064320273602982569750000001085555706764929153_);}	.st89{fill:url(#SVGID_00000029764233950642032820000015409226511277876126_);}	.st90{fill:url(#SVGID_00000149350855657041963970000000107762258146610361_);}	.st91{fill:url(#SVGID_00000067203912679954910730000009625472826980106640_);}	.st92{fill:url(#SVGID_00000179610685136338305540000007190271617055729341_);}	.st93{fill:url(#SVGID_00000061445300541215238960000005222658680309179041_);}	.st94{fill:url(#SVGID_00000096051139336966704360000000123331005091005350_);}	.st95{fill:url(#SVGID_00000057115915616948258660000000413626950076035713_);}	.st96{fill:#99AAB5;}	.st97{fill:#66757F;}	.st98{fill:#31373D;}	.st99{fill:#DD2E44;}	.st100{fill:#A0041E;}	.st101{fill:#292F33;}	.st102{fill:#E1E8ED;}	.st103{fill:#CCD6DD;}</style><g>	<g>		<path class="st55" d="M14.8,13H1.2c-0.5,0-1-0.4-1-1V4c0-0.5,0.4-1,1-1h13.7c0.5,0,1,0.4,1,1V12C15.8,12.5,15.4,13,14.8,13z"></path>	</g>	<g>		<path class="st56" d="M0.2,4.7h15.7v2.1H0.2V4.7z"></path>	</g>	<g>		<path class="st57" d="M14.6,9.3H1.4c-0.1,0-0.2-0.1-0.2-0.2V8c0-0.1,0.1-0.2,0.2-0.2h13.1c0.1,0,0.2,0.1,0.2,0.2v1.1   C14.8,9.2,14.7,9.3,14.6,9.3z"></path>	</g>	<g>		<path class="st56" d="M3.6,9.3C3.6,9.3,3.6,9.3,3.6,9.3c-0.1,0-0.2-0.1-0.2-0.1c-0.1-0.1,0-0.2,0-0.3c0-0.1,0.1-0.2,0.1-0.3   c0,0,0,0,0-0.1c0-0.1-0.1-0.2-0.2-0.2C3.2,8.3,3.1,8.4,3,8.5C3,8.5,3,8.6,3,8.6c0,0.1-0.1,0.2-0.1,0.3C2.9,9,2.8,9,2.7,9   c-0.1,0-0.1-0.1-0.1-0.2c0-0.1,0.1-0.1,0.1-0.2c0-0.1,0-0.2,0.1-0.2C2.9,8.2,3.1,8,3.3,8c0.1,0,0.2,0.1,0.4,0.3   c0.1-0.1,0.3-0.2,0.4-0.3c0,0,0.1,0,0.2,0c0.1,0,0.2,0.2,0.2,0.2c0.1,0.1,0.2,0.3,0.3,0.4c0,0,0.1,0.1,0.1,0.1   c0.1,0,0.1,0,0.2-0.1c0.1-0.1,0.2-0.2,0.3-0.2c0.2-0.1,0.4,0,0.6,0.1c0.1,0,0.2,0.1,0.3,0.1c0.2,0,0.3,0,0.5-0.1   C6.9,8.4,7,8.4,7.1,8.3c0.1,0,0.1,0,0.2,0c0.1,0,0.2,0.1,0.3,0.2l0,0C7.7,8.7,7.8,8.8,8,8.8c0.1,0,0.2,0,0.3-0.1c0,0,0,0,0,0   c0.5-0.2,1.1-0.3,1.5-0.1c0.1,0,0.1,0.1,0.1,0.2c0,0.1-0.1,0.1-0.2,0.1C9.4,8.7,8.9,8.8,8.4,9c0,0,0,0,0,0C8.3,9,8.2,9.1,8,9.1   C7.8,9.1,7.6,9,7.4,8.7l0,0c0-0.1-0.1-0.1-0.1-0.1c0,0-0.1,0-0.1,0C7.1,8.6,7,8.7,6.9,8.7C6.7,8.8,6.5,9,6.2,8.9   c-0.1,0-0.2-0.1-0.3-0.1C5.7,8.7,5.6,8.6,5.5,8.7c-0.1,0-0.1,0.1-0.2,0.2C5.2,8.9,5,9.1,4.8,9C4.7,9,4.6,8.9,4.6,8.9   C4.5,8.7,4.4,8.6,4.3,8.4c0-0.1,0-0.1-0.1-0.1c0,0,0,0,0,0C4,8.4,3.9,8.5,3.8,8.6c0,0.1,0.1,0.3,0.1,0.4c0,0.1,0,0.1-0.1,0.2   c0,0,0,0,0,0C3.7,9.3,3.7,9.3,3.6,9.3z"></path>	</g></g></svg>