<svg version="1.2" xmlns="http://www.w3.org/2000/svg" viewBox="0 0 450 450" width="450" height="450">
	<style>
		.s0 { fill: none;stroke: #0c1f4c;stroke-miterlimit:100;stroke-width: 4 } 
		.s1 { fill: #0c1f4c } 
	</style>
	<path class="s0" d="m433.37 131.26c-28.9-102.01-76.47-151.05-191.42-114.47l-19.48 6.65c-112.48 48.64-175.43 130.15-192.85 164.82-27.55 44.18-31.51 107.35 0 150.1 130.63 157.23 321.58 128.25 391.88-16.15 30.02-91.2 19.95-162.45 11.87-190.95z"/>
	<path id="Layer copy" class="s1" d="m424.38 135.27c-27.66-97.62-73.18-144.54-183.17-109.54l-18.63 6.36c-107.62 46.55-167.86 124.54-184.53 157.72-26.36 42.26-30.14 102.71 0 143.62 124.99 150.44 307.7 122.71 374.97-15.45 28.72-87.27 19.09-155.44 11.36-182.71z"/>
</svg>