<?xml version="1.0" encoding="UTF-8"?>
<svg xmlns="http://www.w3.org/2000/svg" version="1.1" viewBox="0 0 288 288">
  <defs>
    <style>
      .cls-1, .cls-2 {
        fill: #fff;
      }

      .cls-3 {
        fill: none;
        stroke: #fff;
        stroke-miterlimit: 10;
      }

      .cls-4 {
        fill: #1a2e35;
      }

      .cls-5 {
        fill: #1a2e35;
      }

      .cls-6 {
        isolation: isolate;
      }

      .cls-7 {
        opacity: .2;
      }

      .cls-2 {
        opacity: .4;
      }

      .cls-8 {
        fill: #101820;
      }

      .cls-9, .cls-10 {
        fill: #ececec;
      }

      .cls-11 {
        fill: #dcdcdc;
      }

      .cls-12 {
        fill: #c9181e;
      }

      .cls-10 {
        mix-blend-mode: screen;
        opacity: .26;
      }

      .cls-13 {
        opacity: .1;
      }
    </style>
  </defs>
  <!-- Generator: Adobe Illustrator 28.6.0, SVG Export Plug-In . SVG Version: 1.2.0 Build 709)  -->
  <g class="cls-6">
    <g id="Layer_1">
      <rect class="cls-8" y="-.5" width="288" height="288.5"/>
      <g>
        <path class="cls-9" d="M45.76,181.73c-6.17.2-12.88.42-19.11.45,0,0,0-.45,0-.45l-.05-7.89v-.5s.5,0,.5,0c5.62.03,13.4.08,18.94.23-.02,2.44-.21,5.7-.28,8.16h0ZM45.76,181.73c-.09-2.3-.21-5.64-.27-7.89,0,0,.27.27.27.27-5.4.14-13.19.2-18.66.23,0,0,.5-.5.5-.5l-.05,7.89-.45-.45c5.27.02,13.32.29,18.66.45h0Z"/>
        <path class="cls-9" d="M35.34,191.68c-6.17.2-12.88.42-19.11.45,0,0,0-.45,0-.45l-.05-7.89s0-.5,0-.5h.5c5.62.04,13.4.08,18.94.23-.02,2.44-.21,5.7-.28,8.16h0ZM35.34,191.68c-.09-2.3-.21-5.64-.27-7.89,0,0,.27.27.27.27-5.4.14-13.19.2-18.66.23,0,0,.5-.5.5-.5l-.05,7.89-.45-.45c5.27.02,13.32.29,18.66.45h0Z"/>
        <path class="cls-9" d="M35.34,21.02c-6.17.2-12.88.42-19.11.45,0,0,0-.45,0-.45l-.05-7.89v-.5s.5,0,.5,0c5.62.03,13.4.08,18.94.23-.02,2.44-.21,5.7-.28,8.16h0ZM35.34,21.02c-.09-2.3-.21-5.64-.27-7.89,0,0,.27.27.27.27-5.4.14-13.19.2-18.66.23,0,0,.5-.5.5-.5l-.05,7.89-.45-.45c5.27.02,13.32.29,18.66.45h0Z"/>
        <path class="cls-9" d="M271.32,21.02c-6.17.2-12.88.42-19.11.45,0,0,0-.45,0-.45l-.05-7.89s0-.5,0-.5h.5c5.62.04,13.4.08,18.94.23-.02,2.44-.21,5.7-.28,8.16h0ZM271.32,21.02c-.09-2.3-.21-5.64-.27-7.89,0,0,.27.27.27.27-5.4.14-13.19.2-18.66.23,0,0,.5-.5.5-.5l-.05,7.89-.45-.45c5.27.02,13.32.29,18.66.45h0Z"/>
        <path class="cls-9" d="M260.91,30.96c-6.17.2-12.88.42-19.11.45,0,0,0-.45,0-.45l-.05-7.89v-.5s.5,0,.5,0c5.62.03,13.4.08,18.94.23-.02,2.44-.21,5.7-.28,8.16h0ZM260.91,30.96c-.09-2.3-.21-5.64-.27-7.89,0,0,.27.27.27.27-5.4.14-13.19.2-18.66.23,0,0,.5-.5.5-.5l-.05,7.89-.45-.45c5.27.02,13.32.29,18.66.45h0Z"/>
        <path class="cls-9" d="M213.11,123.23c-6.17.2-12.88.42-19.11.45,0,0,0-.45,0-.45,0,0-.05-7.89-.05-7.89,0,0,0-.5,0-.5,0,0,.5,0,.5,0,5.62.03,13.4.08,18.94.23-.02,2.44-.21,5.7-.28,8.16h0ZM213.11,123.23c-.09-2.3-.21-5.64-.27-7.89,0,0,.27.27.27.27-5.4.14-13.19.2-18.66.23,0,0,.5-.5.5-.5l-.05,7.89-.45-.45c5.27.02,13.32.29,18.66.45h0Z"/>
        <path class="cls-9" d="M202.69,133.18c-6.17.2-12.88.42-19.11.45,0,0,0-.45,0-.45l-.05-7.89v-.5s.5,0,.5,0c5.62.03,13.4.08,18.94.23-.02,2.44-.21,5.7-.28,8.16h0ZM202.69,133.18c-.09-2.3-.21-5.64-.27-7.89,0,0,.27.27.27.27-5.4.14-13.19.2-18.66.23,0,0,.5-.5.5-.5l-.05,7.89s-.45-.45-.45-.45c5.27.02,13.32.29,18.66.45h0Z"/>
        <path class="cls-9" d="M192.32,123.23c-6.17.2-12.88.42-19.11.45,0,0,0-.45,0-.45l-.05-7.89v-.5s.5,0,.5,0c5.62.03,13.4.08,18.94.23-.02,2.44-.21,5.7-.28,8.16h0ZM192.32,123.23c-.09-2.3-.21-5.64-.27-7.89,0,0,.27.27.27.27-5.4.14-13.19.2-18.66.23,0,0,.5-.5.5-.5l-.05,7.89-.45-.45c5.27.02,13.32.29,18.66.45h0Z"/>
        <path class="cls-9" d="M271.32,191.68c-6.17.2-12.88.42-19.11.45,0,0,0-.45,0-.45,0,0-.05-7.89-.05-7.89,0,0,0-.5,0-.5h.5c5.62.04,13.4.08,18.94.23-.02,2.44-.21,5.7-.28,8.16h0ZM271.32,191.68c-.09-2.3-.21-5.64-.27-7.89,0,0,.27.27.27.27-5.4.14-13.19.2-18.66.23,0,0,.5-.5.5-.5,0,0-.05,7.89-.05,7.89l-.45-.45c5.27.02,13.32.29,18.66.45h0Z"/>
        <path class="cls-9" d="M112.74,44.47c-6.17.2-12.88.42-19.11.45,0,0,0-.45,0-.45l-.05-7.89s0-.5,0-.5c0,0,.5,0,.5,0,5.62.03,13.4.08,18.94.23-.02,2.44-.21,5.7-.28,8.16h0ZM112.74,44.47c-.09-2.3-.21-5.64-.27-7.89,0,0,.27.27.27.27-5.4.14-13.19.2-18.66.23,0,0,.5-.5.5-.5l-.05,7.89-.45-.45c5.27.02,13.32.29,18.66.45h0Z"/>
      </g>
      <g>
        <path class="cls-9" d="M252.15,96.72l3.68-5.93-1.81-1.12c-.53-.33-.82-.93-.77-1.56.03-.35.04-.69.03-1.04-.01-.63.31-1.21.87-1.5l1.88-1.01-3.3-6.15-1.88,1.01c-.55.3-1.22.25-1.73-.11-.29-.2-.58-.38-.89-.55-.55-.3-.89-.88-.87-1.5l.07-2.13-6.97-.22-.06,2.14c-.02.63-.4,1.17-.97,1.44-.15.07-.31.15-.46.23-.15.08-.3.17-.45.25-.54.32-1.2.34-1.73.01l-1.83-1.13-3.68,5.93,1.82,1.13c.53.33.82.94.77,1.56-.03.34-.04.69-.03,1.04.01.63-.31,1.21-.87,1.5l-1.88,1.01,3.3,6.15,1.88-1.01c.55-.3,1.22-.25,1.73.11.29.2.58.38.88.55.55.3.89.88.88,1.5l-.07,2.14,6.97.22.07-2.14c.02-.63.4-1.17.97-1.44.15-.07.31-.15.46-.23.15-.08.3-.17.45-.25.54-.32,1.21-.34,1.74-.01l1.82,1.13ZM246.25,92.32c-2.78,1.49-6.24.45-7.73-2.33-1.49-2.78-.45-6.24,2.33-7.73,2.78-1.49,6.25-.44,7.74,2.34,1.49,2.78.44,6.24-2.34,7.73Z"/>
        <path class="cls-9" d="M51.31,163.86l3.68-5.93-1.81-1.12c-.53-.33-.82-.93-.77-1.56.03-.35.04-.69.03-1.04-.01-.63.31-1.21.87-1.5l1.88-1.01-3.3-6.15-1.88,1.01c-.55.3-1.22.25-1.73-.11-.29-.2-.58-.38-.89-.55-.55-.3-.89-.88-.87-1.5l.07-2.13-6.97-.22-.06,2.14c-.02.63-.4,1.17-.97,1.44-.15.07-.31.15-.46.23-.15.08-.3.17-.45.25-.54.32-1.2.34-1.73.01l-1.83-1.13-3.68,5.93,1.82,1.13c.53.33.82.94.77,1.56-.03.34-.04.69-.03,1.04.01.63-.31,1.21-.87,1.5l-1.88,1.01,3.3,6.15,1.88-1.01c.55-.3,1.22-.25,1.73.11.29.2.58.38.88.55.55.3.89.88.88,1.5l-.07,2.14,6.97.22.07-2.14c.02-.63.4-1.17.97-1.44.15-.07.31-.15.46-.23.15-.08.3-.17.45-.25.54-.32,1.21-.34,1.74-.01l1.82,1.13ZM45.41,159.46c-2.78,1.49-6.24.45-7.73-2.33-1.49-2.78-.45-6.24,2.33-7.73,2.78-1.49,6.25-.44,7.74,2.34,1.49,2.78.44,6.24-2.34,7.73Z"/>
        <path class="cls-9" d="M122.69,50.37l-2.44-4.23-1.29.75c-.38.22-.85.2-1.22-.04-.2-.13-.41-.25-.63-.37-.39-.2-.64-.59-.64-1.03v-1.5h-4.89v1.5c0,.44-.25.83-.64,1.03-.22.11-.43.23-.63.37-.37.24-.84.26-1.22.04l-1.29-.75-2.44,4.23,1.3.75c.38.22.59.64.57,1.08,0,.12,0,.24,0,.36s0,.24,0,.36c.02.44-.19.85-.57,1.07l-1.3.75,2.44,4.23,1.3-.75c.38-.22.85-.2,1.22.04.2.13.41.25.63.36.39.2.64.59.64,1.03v1.5h4.89v-1.5c0-.44.25-.83.64-1.03.22-.11.43-.23.63-.36.37-.24.84-.26,1.22-.04l1.3.75,2.44-4.23-1.3-.75c-.38-.22-.59-.64-.57-1.07,0-.12,0-.24,0-.36s0-.24,0-.36c-.02-.44.19-.86.57-1.08l1.3-.75ZM118.02,52.56c0,2.21-1.79,4-4,4s-4-1.79-4-4,1.79-4,4-4,4,1.79,4,4Z"/>
      </g>
      <g>
        <g>
          <path class="cls-1" d="M43.38,173.43c-8.16,7.99-9.53,20.34-7.81,31.17.04.25.42.18.42-.05,0-2.46-.07-4.91-.07-7.34.04-.11.08-.22.13-.33,2.13-1.55,4.09-3.3,5.3-5.69,1.36-2.68,1.9-5.7,2.94-8.5.1-.27-.19-.19-.38-.05-4.96,3.66-6.54,7.6-7.97,12.86.07-2.73.28-5.46.86-8.2,1.07-5,3.19-9.95,6.78-13.65.13-.14-.07-.36-.22-.22Z"/>
          <g>
            <path class="cls-12" d="M44.92,174.36c1.4.05,2.28,2.29,3.38,2.95.58.35,1.14.33,1.55-.24,1.08-1.51-.4-3.38-1.8-4.42,1,.41,1.83,1.13,2.91,1.34.65.12,1.16-.12,1.31-.79.48-2.06-2.11-2.98-3.89-3.02.86-.6,3.33-2.22,2.02-3.02-1.33-.8-4.22,1.52-5.17,2.29-1.39,1.13-3.04,2.81-3.1,4.57-.08,2.06,1.72.79,2.8.36Z"/>
            <path class="cls-13" d="M44.92,174.36c1.4.05,2.28,2.29,3.38,2.95.58.35,1.14.33,1.55-.24,1.08-1.51-.4-3.38-1.8-4.42,1,.41,1.83,1.13,2.91,1.34.65.12,1.16-.12,1.31-.79.48-2.06-2.11-2.98-3.89-3.02.86-.6,3.33-2.22,2.02-3.02-1.33-.8-4.22,1.52-5.17,2.29-1.39,1.13-3.04,2.81-3.1,4.57-.08,2.06,1.72.79,2.8.36Z"/>
            <path class="cls-12" d="M44.51,174.7c1.79-.82,5.24.36,5.54-.32.59-1.38-2.16-2.33-3.65-2.51,1.37-.37,3.99-.96,3.91-2.28-.1-1.61-4.02-.23-6.01,1.3-2.5,1.92-2.49,3.77-2.07,4.14.57.51,1.99-.19,2.28-.32Z"/>
          </g>
        </g>
        <g>
          <path class="cls-1" d="M24.8,172.64c8.46,7.67,10.3,19.97,8.99,30.85-.04.25-.42.19-.43-.04-.09-2.46-.11-4.9-.21-7.34-.05-.11-.09-.21-.14-.32-2.19-1.47-4.21-3.14-5.51-5.49-1.46-2.63-2.11-5.63-3.26-8.38-.11-.26.18-.2.37-.07,5.1,3.47,6.83,7.34,8.45,12.55-.17-2.73-.48-5.45-1.17-8.16-1.26-4.95-3.57-9.82-7.3-13.38-.14-.14.06-.36.21-.22Z"/>
          <g>
            <path class="cls-12" d="M23.3,173.63c-1.4.1-2.19,2.38-3.26,3.07-.56.37-1.13.37-1.56-.18-1.14-1.47.27-3.39,1.63-4.49-.98.45-1.79,1.2-2.85,1.45-.65.14-1.16-.08-1.34-.74-.55-2.04,2-3.06,3.77-3.17-.88-.57-3.41-2.1-2.13-2.95,1.3-.85,4.28,1.36,5.25,2.09,1.43,1.07,3.15,2.69,3.28,4.45.16,2.05-1.68.86-2.78.47Z"/>
            <path class="cls-13" d="M23.3,173.63c-1.4.1-2.19,2.38-3.26,3.07-.56.37-1.13.37-1.56-.18-1.14-1.47.27-3.39,1.63-4.49-.98.45-1.79,1.2-2.85,1.45-.65.14-1.16-.08-1.34-.74-.55-2.04,2-3.06,3.77-3.17-.88-.57-3.41-2.1-2.13-2.95,1.3-.85,4.28,1.36,5.25,2.09,1.43,1.07,3.15,2.69,3.28,4.45.16,2.05-1.68.86-2.78.47Z"/>
            <path class="cls-12" d="M23.72,173.96c-1.82-.75-5.22.56-5.54-.11-.65-1.36,2.07-2.41,3.55-2.65-1.38-.32-4.03-.81-4-2.13.04-1.62,4.01-.38,6.06,1.07,2.57,1.82,2.63,3.67,2.23,4.06-.55.53-1.99-.11-2.3-.24Z"/>
          </g>
        </g>
        <g>
          <path class="cls-1" d="M33.45,192.9c.62,4.04,1.4,8.22,2.63,12.13.12.36.65.26.59-.12-.56-3.74-1.57-7.41-2.12-11.14-.56-3.78-.87-7.62-.65-11.44.36-6.3,2.07-13,6.18-17.93.09-.12-.1-.28-.19-.17-8.23,9.59-6.92,21.36-6.91,22.41-1.16-3.97-2.37-8.53-6.77-12.57-.19-.17-.34-.09-.31.2.79,7.37,2.84,11.21,7.11,15.15.12,1.17.27,2.33.46,3.48Z"/>
          <g>
            <path class="cls-12" d="M40.14,165.5c1.48-.66,3.52,1.23,4.99,1.36.78.07,1.35-.24,1.48-1.03.36-2.12-2.12-3.3-4.1-3.68,1.24-.08,2.47.26,3.69-.07.74-.2,1.14-.71.97-1.48-.55-2.38-3.69-2.03-5.55-1.18.59-1.05,2.33-3.98.57-4.15-1.78-.16-3.61,3.7-4.21,4.97-.87,1.87-1.74,4.44-.92,6.3.95,2.17,2.18-.04,3.08-1.03Z"/>
            <path class="cls-13" d="M40.14,165.5c1.48-.66,3.52,1.23,4.99,1.36.78.07,1.35-.24,1.48-1.03.36-2.12-2.12-3.3-4.1-3.68,1.24-.08,2.47.26,3.69-.07.74-.2,1.14-.71.97-1.48-.55-2.38-3.69-2.03-5.55-1.18.59-1.05,2.33-3.98.57-4.15-1.78-.16-3.61,3.7-4.21,4.97-.87,1.87-1.74,4.44-.92,6.3.95,2.17,2.18-.04,3.08-1.03Z"/>
            <path class="cls-12" d="M39.9,166.06c1.45-1.75,5.62-2.27,5.58-3.12-.08-1.73-3.42-1.33-5.05-.77,1.23-1.07,3.66-3.01,2.91-4.34-.91-1.62-4.29,1.79-5.58,4.37-1.63,3.25-.68,5.17-.07,5.34.85.24,1.97-1.2,2.21-1.49Z"/>
          </g>
        </g>
        <path class="cls-12" d="M28.04,195.11l-3.63,27.73h22.08c-.45-2.46-4.57-27.76-4.57-27.76l-13.89.03Z"/>
      </g>
      <line class="cls-3" x1="15" y1="222.94" x2="273" y2="222.94"/>
      <ellipse class="cls-10" cx="144" cy="264.08" rx="93.06" ry="13.16"/>
      <g>
        <g>
          <path class="cls-1" d="M86.3,125.87l-3.88-15.25-30.62,7.78-4.05-15.92,24.47-55.76,12.13-3.08,11.8,46.42,9.8-2.49,4.07,16.03-9.8,2.49,3.88,15.25-17.81,4.53ZM65.32,97.9l15.14-3.85-5.01-19.7-10.13,23.55Z"/>
          <path class="cls-1" d="M173.98,74.96c0,5.05-.77,9.71-2.3,13.96-1.53,4.25-3.64,7.93-6.32,11.03-2.68,3.1-5.84,5.51-9.48,7.24-3.64,1.72-7.6,2.58-11.89,2.58s-8.27-.86-11.95-2.58c-3.68-1.72-6.85-4.14-9.53-7.24-2.68-3.1-4.77-6.78-6.26-11.03-1.49-4.25-2.24-8.9-2.24-13.96s.75-9.71,2.24-13.96c1.49-4.25,3.58-7.93,6.26-11.03,2.68-3.1,5.86-5.53,9.53-7.29,3.68-1.76,7.66-2.64,11.95-2.64s8.25.88,11.89,2.64c3.64,1.76,6.79,4.19,9.48,7.29,2.68,3.1,4.79,6.78,6.32,11.03,1.53,4.25,2.3,8.9,2.3,13.96ZM155.49,74.96c0-5.36-1.07-9.71-3.22-13.04-2.14-3.33-4.9-5-8.27-5s-6.34,1.67-8.44,5c-2.11,3.33-3.16,7.68-3.16,13.04s1.05,9.69,3.16,12.98c2.11,3.29,4.92,4.94,8.44,4.94s6.13-1.65,8.27-4.94c2.14-3.29,3.22-7.62,3.22-12.98Z"/>
          <path class="cls-1" d="M206.96,122.94l2.52-15.53-31.18-5.05,2.63-16.21,44.64-41.41,12.36,2-7.66,47.28,9.98,1.62-2.65,16.33-9.98-1.62-2.52,15.53-18.14-2.94ZM198.85,88.92l15.42,2.5,3.25-20.07-18.67,17.57Z"/>
        </g>
        <g>
          <path class="cls-1" d="M118.2,28.97c-1.31,0-2.5-.26-3.57-.77-1.07-.51-1.98-1.19-2.75-2.04-.77-.85-1.36-1.82-1.78-2.91-.42-1.09-.63-2.21-.63-3.35s.22-2.34.67-3.43c.45-1.09,1.06-2.06,1.84-2.9.78-.84,1.71-1.51,2.79-2.01,1.08-.5,2.24-.74,3.51-.74s2.48.26,3.54.79c1.07.53,1.98,1.22,2.74,2.08.76.86,1.34,1.83,1.77,2.93.42,1.09.63,2.2.63,3.33,0,1.19-.22,2.33-.66,3.42-.44,1.08-1.04,2.04-1.82,2.87-.77.83-1.7,1.5-2.77,1.99-1.08.5-2.24.74-3.51.74ZM113,19.89c0,.77.12,1.52.35,2.24.24.72.58,1.36,1.02,1.92.45.55.99,1,1.64,1.34.65.34,1.38.5,2.21.5s1.58-.17,2.23-.52c.65-.34,1.19-.8,1.64-1.37.45-.57.78-1.21,1.01-1.93.23-.71.34-1.44.34-2.18s-.12-1.52-.37-2.24c-.24-.72-.59-1.36-1.03-1.92-.45-.55-.99-1-1.64-1.32-.65-.33-1.37-.49-2.18-.49s-1.59.17-2.24.52c-.66.34-1.2.8-1.64,1.36-.44.56-.77,1.2-1,1.92-.23.71-.34,1.44-.34,2.18Z"/>
          <path class="cls-1" d="M135.4,29.1c-1.08,0-2.04-.19-2.9-.55-.86-.37-1.59-.87-2.18-1.5-.6-.63-1.06-1.36-1.37-2.18-.32-.82-.48-1.69-.48-2.6s.16-1.8.48-2.62c.32-.82.78-1.55,1.37-2.18.6-.63,1.32-1.13,2.18-1.5.86-.37,1.82-.55,2.9-.55s2.04.19,2.89.55c.85.37,1.57.87,2.17,1.5.6.63,1.06,1.36,1.37,2.18.32.82.48,1.7.48,2.62s-.16,1.77-.48,2.6c-.32.82-.77,1.55-1.36,2.18-.59.63-1.31,1.13-2.17,1.5-.86.37-1.82.55-2.9.55ZM131.95,22.26c0,.59.09,1.12.26,1.6.18.48.42.9.73,1.25.31.35.68.63,1.1.82.42.19.87.29,1.36.29s.94-.1,1.36-.29c.42-.19.79-.47,1.1-.82.31-.35.55-.77.73-1.26.18-.49.26-1.03.26-1.61s-.09-1.1-.26-1.59c-.18-.49-.42-.91-.73-1.26-.31-.35-.68-.63-1.1-.82-.42-.19-.87-.29-1.36-.29s-.94.1-1.36.3c-.42.2-.79.48-1.1.83-.31.35-.55.77-.73,1.26-.18.49-.26,1.02-.26,1.59Z"/>
          <path class="cls-1" d="M152.5,29.1c-1.04,0-1.95-.23-2.72-.69-.77-.46-1.38-1.09-1.82-1.88v7.69h-3.38V15.63h2.95v2.27c.49-.77,1.12-1.38,1.89-1.83.77-.45,1.66-.67,2.67-.67.89,0,1.72.18,2.47.54s1.41.85,1.95,1.46c.55.61.97,1.34,1.29,2.17.31.83.47,1.71.47,2.64s-.14,1.86-.43,2.7c-.29.84-.69,1.57-1.2,2.19-.51.62-1.12,1.11-1.83,1.46-.71.35-1.48.53-2.32.53ZM151.36,26.22c.5,0,.97-.11,1.4-.33.43-.22.79-.51,1.1-.88.3-.37.54-.8.71-1.29.17-.49.25-.99.25-1.51,0-.56-.09-1.07-.28-1.55-.19-.48-.44-.9-.77-1.25-.33-.35-.71-.63-1.16-.83-.45-.2-.93-.3-1.45-.3-.32,0-.65.05-.98.16-.34.11-.65.26-.93.47-.29.2-.54.44-.77.71-.23.27-.4.56-.52.88v3.1c.3.76.77,1.38,1.39,1.88.62.5,1.29.74,2.02.74Z"/>
          <path class="cls-1" d="M165.56,29.1c-1.11,0-2.19-.18-3.25-.53-1.06-.35-1.97-.86-2.72-1.51l1.26-2.12c.81.57,1.59,1,2.36,1.3.77.29,1.53.44,2.28.44.67,0,1.2-.13,1.59-.38.39-.25.58-.61.58-1.08s-.23-.82-.68-1.03c-.45-.22-1.19-.47-2.22-.76-.86-.24-1.59-.46-2.19-.68-.61-.22-1.09-.47-1.46-.74-.37-.28-.64-.6-.81-.96s-.25-.79-.25-1.3c0-.67.13-1.28.39-1.82.26-.54.63-1,1.1-1.37.47-.38,1.02-.67,1.65-.87.63-.2,1.32-.3,2.06-.3.99,0,1.92.14,2.79.43.87.29,1.66.75,2.38,1.39l-1.36,2.04c-.67-.5-1.32-.87-1.95-1.11-.63-.24-1.26-.35-1.88-.35-.57,0-1.05.12-1.44.35-.39.24-.58.61-.58,1.13,0,.24.05.43.14.58.09.15.24.29.44.4.2.12.47.23.79.34.33.11.74.22,1.22.34.91.24,1.69.47,2.33.71.65.24,1.18.5,1.59.81.41.3.71.65.91,1.05.19.4.29.87.29,1.43,0,1.3-.48,2.32-1.44,3.06-.96.75-2.26,1.12-3.91,1.12Z"/>
          <path class="cls-1" d="M173.76,22.11v-11.35h3.38v11.35h-3.38ZM173.76,28.85v-3.81h3.38v3.81h-3.38Z"/>
        </g>
      </g>
      <g>
        <rect class="cls-1" x="134.69" y="179.67" width="22.17" height="1.82"/>
        <rect class="cls-1" x="134.69" y="182.04" width="22.17" height="1.82"/>
        <rect class="cls-1" x="134.69" y="184.41" width="22.17" height="1.82"/>
        <rect class="cls-1" x="134.69" y="186.77" width="22.17" height="1.82"/>
        <rect class="cls-1" x="134.69" y="189.14" width="22.17" height="1.82"/>
      </g>
      <g>
        <rect class="cls-1" x="124.31" y="236.33" width="42.15" height="1.82"/>
        <rect class="cls-1" x="124.31" y="238.7" width="42.15" height="1.82"/>
        <rect class="cls-1" x="124.31" y="241.06" width="42.15" height="1.82"/>
        <rect class="cls-1" x="124.31" y="243.43" width="42.15" height="1.82"/>
        <rect class="cls-1" x="124.31" y="245.79" width="42.15" height="1.82"/>
      </g>
      <g>
        <path class="cls-12" d="M105.81,164.66c.02-.25-9.23-3.34-9.23-3.34l.55-31.77,12.26-2.63-3.58,37.74Z"/>
        <path class="cls-7" d="M105.81,164.66c.02-.25-9.23-3.34-9.23-3.34l.55-31.77,12.26-2.63-3.58,37.74Z"/>
      </g>
      <g>
        <path class="cls-12" d="M190.5,177.13c.06-.24,9.81.04,9.81.04l10.42-30.02-10.61-6.69-9.63,36.67Z"/>
        <path class="cls-7" d="M190.5,177.13c.06-.24,9.81.04,9.81.04l10.42-30.02-10.61-6.69-9.63,36.67Z"/>
      </g>
      <path class="cls-12" d="M104.03,176.36s3.43-51.38,6.43-68.28c0,0,62.07,4.69,95.57,17.5,0,0-17.27,60.01-18.17,62.99,0,0-43.71-8.61-83.84-12.21Z"/>
      <g>
        <path class="cls-13" d="M159.43,114.94c-1.01,6.19-2.03,12.37-3.09,18.55l-3.2,18.53-.17-.26,20.8,4.94,10.39,2.52,10.38,2.57-10.43-2.33-10.42-2.38-20.82-4.86-.21-.05.04-.21,3.31-18.51c1.11-6.17,2.26-12.33,3.42-18.49Z"/>
        <path class="cls-13" d="M157.15,118.46c.01.57-.44,1.15-1.09,1.21-.31.03-.66-.07-.91-.29-.26-.22-.41-.57-.41-.91,0-.35.15-.69.41-.91.26-.22.6-.32.91-.29.65.06,1.1.64,1.09,1.21ZM157.15,118.46c0-.29-.13-.57-.34-.75-.21-.18-.49-.25-.75-.22-.52.06-.86.53-.86.97,0,.44.33.91.86.97.25.03.53-.04.75-.23.21-.18.34-.46.34-.75Z"/>
        <path class="cls-13" d="M156.06,126.11c.01.57-.44,1.15-1.09,1.21-.31.03-.66-.07-.91-.29-.26-.22-.41-.57-.41-.91,0-.35.15-.69.41-.91.26-.22.6-.32.91-.29.65.06,1.1.64,1.09,1.21ZM156.06,126.11c0-.29-.13-.57-.34-.75-.21-.18-.49-.25-.75-.22-.52.06-.86.53-.86.97,0,.44.33.91.86.97.25.03.53-.04.75-.23.21-.18.34-.46.34-.75Z"/>
        <path class="cls-13" d="M154.72,134.19c.01.57-.44,1.15-1.09,1.21-.31.03-.66-.07-.91-.29-.26-.22-.41-.57-.41-.91,0-.35.15-.69.41-.91.26-.22.6-.32.91-.29.65.06,1.1.64,1.09,1.21ZM154.72,134.19c0-.29-.13-.57-.34-.75-.21-.18-.49-.25-.75-.22-.52.06-.86.53-.86.97,0,.44.33.91.86.97.25.03.53-.04.75-.23.21-.18.34-.46.34-.75Z"/>
        <path class="cls-13" d="M153.38,142.27c.01.57-.44,1.15-1.09,1.21-.31.03-.66-.07-.91-.29-.26-.22-.41-.57-.41-.91,0-.35.15-.69.41-.91.26-.22.6-.32.91-.29.65.06,1.1.64,1.09,1.21ZM153.38,142.27c0-.29-.13-.57-.34-.75-.21-.18-.49-.25-.75-.22-.52.06-.86.53-.86.97,0,.44.33.91.86.97.25.03.53-.04.75-.23.21-.18.34-.46.34-.75Z"/>
        <path class="cls-13" d="M157.95,155.15c.01.57-.44,1.15-1.09,1.21-.31.03-.66-.07-.91-.29-.26-.22-.41-.57-.41-.91,0-.35.15-.69.41-.91.26-.22.6-.32.91-.29.65.06,1.1.64,1.09,1.21ZM157.95,155.15c0-.29-.13-.57-.34-.75-.21-.18-.49-.25-.75-.22-.52.06-.86.53-.86.97,0,.44.33.91.86.97.25.03.53-.04.75-.23.21-.18.34-.46.34-.75Z"/>
        <path class="cls-13" d="M165.58,157.01c.01.57-.44,1.15-1.09,1.21-.31.03-.66-.07-.91-.29-.26-.22-.41-.57-.41-.91,0-.35.15-.69.41-.91.26-.22.6-.32.91-.29.65.06,1.1.64,1.09,1.21ZM165.58,157.01c0-.29-.13-.57-.34-.75-.21-.18-.49-.25-.75-.22-.52.06-.86.53-.86.97,0,.44.33.91.86.97.25.03.53-.04.75-.23.21-.18.34-.46.34-.75Z"/>
        <path class="cls-13" d="M173.2,158.87c.01.57-.44,1.15-1.09,1.21-.31.03-.66-.07-.91-.29-.26-.22-.41-.57-.41-.91,0-.35.15-.69.41-.91.26-.22.6-.32.91-.29.65.06,1.1.64,1.09,1.21ZM173.2,158.87c0-.29-.13-.57-.34-.75-.21-.18-.49-.25-.75-.22-.52.06-.86.53-.86.97,0,.44.33.91.86.97.25.03.53-.04.75-.23.21-.18.34-.46.34-.75Z"/>
        <path class="cls-13" d="M180.83,160.73c.01.57-.44,1.15-1.09,1.21-.31.03-.66-.07-.91-.29-.26-.22-.41-.57-.41-.91,0-.35.15-.69.41-.91.26-.22.6-.32.91-.29.65.06,1.1.64,1.09,1.21ZM180.83,160.73c0-.29-.13-.57-.34-.75-.21-.18-.49-.25-.75-.22-.52.06-.86.53-.86.97,0,.44.33.91.86.97.25.03.53-.04.75-.23.21-.18.34-.46.34-.75Z"/>
        <path class="cls-13" d="M188.45,162.67c-.03.57-.53,1.11-1.18,1.12-.32,0-.65-.12-.89-.36-.24-.24-.36-.6-.34-.94.03-.35.21-.68.48-.88.27-.2.62-.28.93-.22.64.11,1.05.72.99,1.29ZM188.45,162.67c.02-.29-.09-.58-.28-.77-.2-.2-.47-.29-.73-.28-.53.02-.9.46-.93.9-.04.44.26.94.78,1.04.25.05.54,0,.76-.17.23-.16.37-.43.4-.72Z"/>
        <path class="cls-13" d="M152.04,150.34c.01.57-.44,1.15-1.09,1.21-.31.03-.66-.07-.91-.29-.26-.22-.41-.57-.41-.91,0-.35.15-.69.41-.91.26-.22.6-.32.91-.29.65.06,1.1.64,1.09,1.21ZM152.04,150.34c0-.29-.13-.57-.34-.75-.21-.18-.49-.25-.75-.22-.52.06-.86.53-.86.97,0,.44.33.91.86.97.25.03.53-.04.75-.23.21-.18.34-.46.34-.75Z"/>
      </g>
      <circle class="cls-7" cx="127.41" cy="150.62" r="17.63" transform="translate(-68.04 123.81) rotate(-41.96)"/>
      <circle class="cls-1" cx="127.41" cy="150.62" r="14.14" transform="translate(-58.56 216.46) rotate(-69.27)"/>
      <g>
        <rect class="cls-12" x="122.97" y="145.14" width="3.35" height="3.35" transform="translate(25.08 -18.04) rotate(9.2)"/>
        <rect class="cls-12" x="120.2" y="141.3" width="3.35" height="3.35" transform="translate(24.43 -17.65) rotate(9.2)"/>
        <rect class="cls-12" x="133.41" y="143.45" width="3.35" height="3.35" transform="translate(24.95 -19.74) rotate(9.2)"/>
        <rect class="cls-12" x="118.07" y="154.45" width="3.35" height="3.35" transform="translate(26.51 -17.14) rotate(9.2)"/>
        <rect class="cls-12" x="131.28" y="156.59" width="3.35" height="3.35" transform="translate(27.02 -19.23) rotate(9.2)"/>
        <rect class="cls-12" x="121.91" y="151.68" width="3.35" height="3.35" transform="translate(26.11 -17.79) rotate(9.2)"/>
        <rect class="cls-12" x="125.74" y="148.95" width="3.35" height="3.35" transform="translate(25.73 -18.44) rotate(9.2)"/>
        <rect class="cls-12" x="129.57" y="146.21" width="3.35" height="3.35" transform="translate(25.34 -19.09) rotate(9.2)"/>
        <rect class="cls-12" x="128.52" y="152.75" width="3.35" height="3.35" transform="translate(26.37 -18.83) rotate(9.2)"/>
      </g>
      <g>
        <circle class="cls-12" cx="174.71" cy="158.01" r="17.63" transform="translate(-58.24 192.99) rotate(-50.67)"/>
        <circle class="cls-7" cx="174.71" cy="158.01" r="17.63" transform="translate(-58.24 192.99) rotate(-50.67)"/>
        <path class="cls-7" d="M191.86,162.08c-.08.35-.17.68-.28,1.02l-34.35-7.33c.08-.61.19-1.23.34-1.84,2.25-9.47,11.75-15.32,21.23-13.07,9.47,2.25,15.32,11.75,13.07,21.23Z"/>
      </g>
      <circle class="cls-1" cx="174.71" cy="158.01" r="14.14" transform="translate(-47.41 79.57) rotate(-22.68)"/>
      <rect class="cls-12" x="173.04" y="149.68" width="3.35" height="16.66" transform="translate(41.27 -36.11) rotate(13.37)"/>
      <g>
        <path class="cls-12" d="M192.88,161.75l-36.09-8.58c2.37-9.96,12.37-16.12,22.33-13.75,9.96,2.37,16.12,12.36,13.76,22.33Z"/>
        <path class="cls-7" d="M192.88,161.75l-36.09-8.58c2.37-9.96,12.37-16.12,22.33-13.75,9.96,2.37,16.12,12.36,13.76,22.33Z"/>
      </g>
      <path class="cls-13" d="M144.04,168.48c.09-1.41.61-2.84,1.63-3.97.5-.57,1.18-1.02,1.92-1.29.74-.27,1.55-.32,2.31-.26.78.09,1.57.36,2.21.85.63.5,1.12,1.15,1.41,1.85.59,1.4.65,2.89.37,4.28-.24-1.38-.59-2.73-1.24-3.83-.64-1.11-1.66-1.8-2.88-1.91-1.24-.15-2.45.18-3.42,1-.97.82-1.72,2-2.3,3.27Z"/>
      <g>
        <path class="cls-1" d="M108.86,132.53c.15-1.88.36-3.76.54-5.64.2-1.88.41-3.75.63-5.62.22-1.87.46-3.74.7-5.61.23-1.87.51-3.74.76-5.6l.07-.5.51.03c4.07.26,8.12.58,12.18,1,2.03.21,4.05.44,6.07.7,2.02.29,4.04.56,6.04.92l-12.18-.75-12.17-.79.57-.47c-.28,1.86-.53,3.73-.83,5.59-.29,1.86-.57,3.73-.88,5.59-.3,1.86-.62,3.72-.95,5.58-.35,1.85-.67,3.71-1.05,5.56Z"/>
        <path class="cls-1" d="M111.79,146.78c.41-2.26,1.44-4.42,2.82-6.3.34-.47.74-.91,1.11-1.36.41-.42.83-.83,1.25-1.24.46-.37.92-.74,1.39-1.1.5-.32.99-.64,1.49-.95.53-.26,1.06-.52,1.6-.76l1.67-.58,1.73-.36c.58-.09,1.17-.1,1.76-.15,2.35-.06,4.66.44,6.79,1.3-2.26-.42-4.51-.66-6.73-.45-2.21.21-4.37.87-6.29,1.95-1.94,1.06-3.66,2.52-5.11,4.21-1.44,1.7-2.64,3.63-3.49,5.77Z"/>
        <path class="cls-1" d="M160.41,151.54c.72-2.19,2.03-4.18,3.66-5.85.41-.42.85-.8,1.29-1.19.46-.36.94-.7,1.41-1.06.5-.3,1.01-.6,1.52-.89.54-.24,1.07-.5,1.61-.73.56-.18,1.12-.37,1.69-.53l1.74-.34,1.77-.11c.59,0,1.18.06,1.76.1,2.34.26,4.56,1.08,6.54,2.23-2.18-.73-4.38-1.27-6.6-1.37-2.22-.1-4.44.26-6.5,1.06-2.07.78-3.97,1.99-5.64,3.47-1.67,1.49-3.12,3.24-4.25,5.23Z"/>
      </g>
      <g>
        <g>
          <path class="cls-12" d="M106.01,208.02c-4.52,0-14.4-1.02-20.76-9.19-8.14-10.46-5.2-30.54-5.07-31.39l3.53.54c-.03.19-2.84,19.41,4.36,28.66,7.03,9.04,19.79,7.74,19.91,7.73l.4,3.55c-.14.02-1.01.11-2.38.11Z"/>
          <path class="cls-2" d="M106.01,208.02c-4.52,0-14.4-1.02-20.76-9.19-8.14-10.46-5.2-30.54-5.07-31.39l3.53.54c-.03.19-2.84,19.41,4.36,28.66,7.03,9.04,19.79,7.74,19.91,7.73l.4,3.55c-.14.02-1.01.11-2.38.11Z"/>
        </g>
        <path class="cls-12" d="M84.75,170.41c-.64,0-1.3-.05-1.97-.16-5.96-.97-8.6-4.53-9.76-7.35-1.17-2.83-1.44-6.25-.8-10.17l7.56,1.22c-.39,2.43-.28,4.57.32,6.02.43,1.04,1.26,2.29,3.91,2.72,1.21.2,2.52.09,3.89-1.97,1.06-1.59,1.69-3.76,1.91-5.14l7.56,1.22c-.17,1.08-.92,4.86-3.09,8.15-2.37,3.57-5.7,5.46-9.52,5.46Z"/>
        <g>
          <path class="cls-12" d="M113.47,218.25c-.01-.16-6.4-1.18-6.4-1.18l-3.1-20.86,7.74-3.06,1.77,25.1Z"/>
          <path class="cls-7" d="M113.47,218.25c-.01-.16-6.4-1.18-6.4-1.18l-3.1-20.86,7.74-3.06,1.77,25.1Z"/>
        </g>
      </g>
      <g>
        <path class="cls-12" d="M176.65,218.29c.02-.16,6.43-1.04,6.43-1.04l3.56-20.78-7.67-3.23-2.32,25.05Z"/>
        <path class="cls-7" d="M176.65,218.29c.02-.16,6.43-1.04,6.43-1.04l3.56-20.78-7.67-3.23-2.32,25.05Z"/>
      </g>
      <path class="cls-12" d="M110.81,188.48s51.68-2.21,69.14.7c0,0-5.13,50.01-5.4,50.98,0,0-51.41-.14-59.45,0,0,0-4.36-33.26-4.29-51.68Z"/>
      <g>
        <path class="cls-7" d="M126.51,202.19s28.21-1.11,37.75.35c0,0-2.8,25.22-2.95,25.71,0,0-28.07-.07-32.45,0,0,0-1.93-17.26-2.34-26.06Z"/>
        <path class="cls-7" d="M130.37,228.24c-.65,0-1.16,0-1.52.01,0,0-1.93-17.26-2.34-26.06,0,0,.64-.03,1.76-.06l2.1,26.11Z"/>
        <g>
          <path class="cls-12" d="M138.69,208.41c-1.58-.5-3.27.38-3.76,1.96-.5,1.58.38,3.27,1.96,3.76,1.58.5,3.26-.38,3.76-1.96.5-1.58-.38-3.27-1.96-3.76ZM140.3,212.06c-.44,1.39-1.92,2.16-3.3,1.72-1.39-.44-2.16-1.92-1.72-3.31.44-1.39,1.92-2.16,3.31-1.72,1.39.44,2.16,1.92,1.72,3.3ZM138.69,208.41c-1.58-.5-3.27.38-3.76,1.96-.5,1.58.38,3.27,1.96,3.76,1.58.5,3.26-.38,3.76-1.96.5-1.58-.38-3.27-1.96-3.76ZM140.3,212.06c-.44,1.39-1.92,2.16-3.3,1.72-1.39-.44-2.16-1.92-1.72-3.31.44-1.39,1.92-2.16,3.31-1.72,1.39.44,2.16,1.92,1.72,3.3ZM138.69,208.41c-1.58-.5-3.27.38-3.76,1.96-.5,1.58.38,3.27,1.96,3.76,1.58.5,3.26-.38,3.76-1.96.5-1.58-.38-3.27-1.96-3.76ZM140.3,212.06c-.44,1.39-1.92,2.16-3.3,1.72-1.39-.44-2.16-1.92-1.72-3.31.44-1.39,1.92-2.16,3.31-1.72,1.39.44,2.16,1.92,1.72,3.3ZM139.69,205.24c-3.33-1.05-6.89.8-7.94,4.13-1.05,3.33.8,6.88,4.13,7.93,3.33,1.05,6.88-.8,7.93-4.13,1.05-3.33-.8-6.88-4.13-7.93ZM141.09,212.31c-.57,1.82-2.53,2.84-4.35,2.27-1.82-.57-2.84-2.52-2.26-4.35.57-1.82,2.53-2.84,4.35-2.26,1.82.57,2.84,2.52,2.26,4.35ZM140.65,212.17c.5-1.58-.38-3.27-1.96-3.76-1.58-.5-3.27.38-3.76,1.96-.5,1.58.38,3.27,1.96,3.76,1.58.5,3.26-.38,3.76-1.96ZM140.3,212.06c-.44,1.39-1.92,2.16-3.3,1.72-1.39-.44-2.16-1.92-1.72-3.31.44-1.39,1.92-2.16,3.31-1.72,1.39.44,2.16,1.92,1.72,3.3ZM138.69,208.41c-1.58-.5-3.27.38-3.76,1.96-.5,1.58.38,3.27,1.96,3.76,1.58.5,3.26-.38,3.76-1.96.5-1.58-.38-3.27-1.96-3.76ZM140.3,212.06c-.44,1.39-1.92,2.16-3.3,1.72-1.39-.44-2.16-1.92-1.72-3.31.44-1.39,1.92-2.16,3.31-1.72,1.39.44,2.16,1.92,1.72,3.3ZM138.69,208.41c-1.58-.5-3.27.38-3.76,1.96-.5,1.58.38,3.27,1.96,3.76,1.58.5,3.26-.38,3.76-1.96.5-1.58-.38-3.27-1.96-3.76ZM140.3,212.06c-.44,1.39-1.92,2.16-3.3,1.72-1.39-.44-2.16-1.92-1.72-3.31.44-1.39,1.92-2.16,3.31-1.72,1.39.44,2.16,1.92,1.72,3.3Z"/>
          <g>
            <polygon class="cls-12" points="137.13 217.42 134.81 216.69 134.42 218.37 136.48 219.02 137.13 217.42"/>
            <polygon class="cls-12" points="132.96 215.25 131.83 213.09 130.37 214 131.37 215.92 132.96 215.25"/>
            <polygon class="cls-12" points="131.54 210.76 132.28 208.44 130.59 208.05 129.94 210.12 131.54 210.76"/>
            <polygon class="cls-12" points="133.72 206.59 135.87 205.47 134.96 204.01 133.04 205.01 133.72 206.59"/>
            <polygon class="cls-12" points="138.2 205.18 140.52 205.91 140.91 204.23 138.85 203.58 138.2 205.18"/>
            <polygon class="cls-12" points="142.37 207.36 143.49 209.51 144.96 208.6 143.96 206.68 142.37 207.36"/>
            <polygon class="cls-12" points="143.78 211.84 143.05 214.16 144.73 214.55 145.38 212.49 143.78 211.84"/>
            <polygon class="cls-12" points="141.61 216.01 139.45 217.13 140.37 218.6 142.29 217.6 141.61 216.01"/>
          </g>
        </g>
        <g>
          <path class="cls-11" d="M148.89,217.24c-.94-.61-2.19-.34-2.8.59-.61.94-.34,2.19.59,2.8.93.61,2.18.34,2.79-.59.61-.93.35-2.19-.59-2.8ZM149.28,219.9c-.54.82-1.63,1.05-2.45.52-.82-.53-1.05-1.63-.52-2.45.53-.82,1.63-1.05,2.46-.52.82.53,1.05,1.63.52,2.45ZM148.89,217.24c-.94-.61-2.19-.34-2.8.59-.61.94-.34,2.19.59,2.8.93.61,2.18.34,2.79-.59.61-.93.35-2.19-.59-2.8ZM149.28,219.9c-.54.82-1.63,1.05-2.45.52-.82-.53-1.05-1.63-.52-2.45.53-.82,1.63-1.05,2.46-.52.82.53,1.05,1.63.52,2.45ZM148.89,217.24c-.94-.61-2.19-.34-2.8.59-.61.94-.34,2.19.59,2.8.93.61,2.18.34,2.79-.59.61-.93.35-2.19-.59-2.8ZM149.28,219.9c-.54.82-1.63,1.05-2.45.52-.82-.53-1.05-1.63-.52-2.45.53-.82,1.63-1.05,2.46-.52.82.53,1.05,1.63.52,2.45ZM150.11,215.36c-1.97-1.28-4.61-.72-5.89,1.24-1.28,1.97-.73,4.61,1.25,5.89,1.97,1.28,4.61.73,5.89-1.25,1.28-1.97.73-4.61-1.24-5.89ZM149.74,220.2c-.7,1.08-2.15,1.39-3.23.68-1.08-.7-1.39-2.15-.68-3.23.7-1.08,2.15-1.38,3.23-.68,1.08.7,1.38,2.15.68,3.23ZM149.48,220.03c.61-.93.35-2.19-.59-2.8-.94-.61-2.19-.34-2.8.59-.61.94-.34,2.19.59,2.8.93.61,2.18.34,2.79-.59ZM149.28,219.9c-.54.82-1.63,1.05-2.45.52-.82-.53-1.05-1.63-.52-2.45.53-.82,1.63-1.05,2.46-.52.82.53,1.05,1.63.52,2.45ZM148.89,217.24c-.94-.61-2.19-.34-2.8.59-.61.94-.34,2.19.59,2.8.93.61,2.18.34,2.79-.59.61-.93.35-2.19-.59-2.8ZM149.28,219.9c-.54.82-1.63,1.05-2.45.52-.82-.53-1.05-1.63-.52-2.45.53-.82,1.63-1.05,2.46-.52.82.53,1.05,1.63.52,2.45ZM148.89,217.24c-.94-.61-2.19-.34-2.8.59-.61.94-.34,2.19.59,2.8.93.61,2.18.34,2.79-.59.61-.93.35-2.19-.59-2.8ZM149.28,219.9c-.54.82-1.63,1.05-2.45.52-.82-.53-1.05-1.63-.52-2.45.53-.82,1.63-1.05,2.46-.52.82.53,1.05,1.63.52,2.45Z"/>
          <g>
            <polygon class="cls-11" points="146.25 222.8 144.88 221.9 144.32 222.92 145.54 223.72 146.25 222.8"/>
            <polygon class="cls-11" points="143.94 220.63 143.6 219.03 142.48 219.36 142.78 220.79 143.94 220.63"/>
            <polygon class="cls-11" points="143.83 217.47 144.73 216.1 143.71 215.54 142.91 216.76 143.83 217.47"/>
            <polygon class="cls-11" points="146 215.16 147.6 214.82 147.27 213.71 145.84 214.01 146 215.16"/>
            <polygon class="cls-11" points="149.16 215.06 150.53 215.95 151.09 214.93 149.87 214.13 149.16 215.06"/>
            <polygon class="cls-11" points="151.47 217.22 151.81 218.82 152.92 218.49 152.62 217.07 151.47 217.22"/>
            <polygon class="cls-11" points="151.57 220.38 150.68 221.75 151.7 222.31 152.5 221.09 151.57 220.38"/>
            <polygon class="cls-11" points="149.41 222.69 147.81 223.03 148.14 224.15 149.56 223.85 149.41 222.69"/>
          </g>
        </g>
      </g>
      <g>
        <polygon class="cls-12" points="178.71 234.34 180.69 234.71 186.38 196.24 184.11 195.82 178.71 234.34"/>
        <g>
          <path class="cls-12" d="M161.31,228.25l2.95-25.71,19.86-6.72s-5.4,38.94-5.4,38.52l-17.4-6.1Z"/>
          <path class="cls-2" d="M161.31,228.25l2.95-25.71,19.86-6.72s-5.4,38.94-5.4,38.52l-17.4-6.1Z"/>
        </g>
      </g>
      <path class="cls-1" d="M113.18,203.58c-.32-2.13-.5-4.28-.63-6.43-.06-1.07-.09-2.15-.11-3.23-.02-1.08-.04-2.15,0-3.23v-.28s.28-.01.28-.01c3.94-.21,7.89-.47,11.83-.64,3.95-.19,7.89-.37,11.84-.5-3.94.36-7.87.66-11.81.95-3.94.31-7.88.53-11.82.8l.28-.3-.02,3.21.04,3.22c0,1.07.03,2.15.06,3.22l.07,3.22Z"/>
      <path class="cls-1" d="M167.03,202.92c1.23-.58,2.48-1.13,3.74-1.63,1.26-.51,2.53-1,3.82-1.44,1.29-.44,2.58-.87,3.9-1.24,1.31-.37,2.64-.71,3.99-.93l.33-.05-.06.32c-.31,1.66-.64,3.33-1.02,4.98.14-1.69.35-3.37.57-5.05l.27.26c-1.31.31-2.61.68-3.91,1.06-1.3.39-2.59.8-3.88,1.22l-7.75,2.51Z"/>
      <g>
        <polygon class="cls-13" points="121.78 188.59 122.11 195.02 122.4 201.45 122.89 214.31 123.28 227.18 123.44 233.62 123.54 240.06 123.21 233.63 122.92 227.2 122.43 214.33 122.04 201.46 121.88 195.02 121.78 188.59"/>
        <path class="cls-13" d="M119.93,192.46c.12.55-.2,1.21-.83,1.4-.3.09-.66.06-.95-.11-.3-.17-.51-.47-.58-.81-.07-.34.01-.71.22-.98.21-.27.52-.44.84-.47.65-.07,1.21.41,1.31.97ZM119.93,192.46c-.06-.28-.24-.53-.48-.66-.24-.13-.53-.15-.78-.07-.5.16-.74.69-.65,1.12.08.43.51.83,1.03.78.25-.02.52-.15.69-.37.17-.22.24-.52.19-.8Z"/>
        <path class="cls-13" d="M120.38,200.17c.12.55-.2,1.21-.83,1.4-.3.09-.66.06-.95-.11-.3-.17-.51-.47-.58-.81-.07-.34.01-.71.22-.98.21-.27.52-.44.84-.47.65-.07,1.21.41,1.31.97ZM120.38,200.17c-.06-.28-.24-.53-.48-.66-.24-.13-.53-.15-.78-.07-.5.16-.74.69-.65,1.12.08.43.51.83,1.03.79.25-.02.52-.15.69-.37.17-.22.24-.52.19-.8Z"/>
        <path class="cls-13" d="M120.66,208.36c.12.55-.2,1.21-.83,1.4-.3.09-.66.06-.95-.11-.3-.17-.51-.47-.58-.81-.07-.34.01-.71.22-.98.21-.27.52-.44.84-.47.65-.07,1.21.41,1.31.97ZM120.66,208.36c-.06-.28-.24-.53-.48-.67-.24-.13-.53-.15-.78-.07-.5.16-.74.69-.65,1.12.08.43.51.83,1.03.79.25-.02.52-.15.69-.37.17-.22.24-.52.19-.8Z"/>
        <path class="cls-13" d="M120.94,216.54c.12.55-.2,1.21-.83,1.4-.3.09-.66.06-.95-.11-.3-.17-.51-.47-.58-.81-.07-.34.01-.71.22-.98.21-.27.52-.44.84-.47.65-.07,1.21.41,1.31.97ZM120.94,216.54c-.06-.28-.24-.53-.48-.67-.24-.13-.53-.15-.78-.07-.5.16-.74.69-.65,1.12.08.43.51.83,1.03.78.25-.02.52-.15.69-.37.17-.22.24-.52.19-.8Z"/>
        <path class="cls-13" d="M121.22,224.72c.12.55-.2,1.21-.83,1.4-.3.09-.66.06-.95-.11-.3-.17-.51-.47-.58-.81-.07-.34.01-.71.22-.98.21-.27.52-.44.84-.47.65-.07,1.21.41,1.31.97ZM121.22,224.72c-.06-.28-.24-.53-.48-.66-.24-.13-.53-.15-.78-.07-.5.16-.74.69-.65,1.12.08.43.51.83,1.03.78.25-.02.52-.15.69-.37.17-.22.24-.52.19-.8Z"/>
        <path class="cls-13" d="M121.5,232.91c.12.55-.2,1.21-.83,1.4-.3.09-.66.06-.95-.11-.3-.17-.51-.47-.58-.81-.07-.34.01-.71.22-.98.21-.27.52-.44.84-.47.65-.07,1.21.41,1.31.97ZM121.5,232.91c-.06-.28-.24-.53-.48-.67-.24-.13-.53-.15-.78-.07-.5.16-.74.69-.65,1.12.08.43.51.83,1.03.79.25-.02.52-.15.69-.37.17-.22.24-.52.19-.8Z"/>
      </g>
      <rect class="cls-12" x="94.64" y="249.78" width="30.58" height="3.57" transform="translate(-68.24 42.7) rotate(-16.86)"/>
      <rect class="cls-2" x="94.64" y="249.78" width="30.58" height="3.57" transform="translate(-68.24 42.7) rotate(-16.86)"/>
      <rect class="cls-12" x="107.33" y="248.91" width="3.57" height="5.31" transform="translate(-71.11 44.91) rotate(-17.64)"/>
      <g>
        <polygon class="cls-12" points="95.57 262.72 88.02 230.02 65.22 235.42 76.45 267.29 95.57 262.72"/>
        <g>
          <polygon class="cls-12" points="100.63 261.06 95.57 262.72 88.02 230.02 95.29 231.75 100.63 261.06"/>
          <polygon class="cls-7" points="100.63 261.06 95.57 262.72 88.02 230.02 95.29 231.75 100.63 261.06"/>
        </g>
      </g>
      <circle class="cls-12" cx="124.56" cy="247.13" r="3.88"/>
      <rect class="cls-12" x="176.8" y="236.22" width="3.57" height="30.58" transform="translate(-114.11 348.86) rotate(-73.02)"/>
      <rect class="cls-2" x="176.8" y="236.22" width="3.57" height="30.58" transform="translate(-114.11 348.86) rotate(-73.02)"/>
      <rect class="cls-12" x="176.74" y="249.72" width="5.31" height="3.57" transform="translate(-114.87 345.57) rotate(-72.23)"/>
      <g>
        <polygon class="cls-12" points="192.92 262.69 200.54 230.01 223.32 235.46 212.03 267.3 192.92 262.69"/>
        <g>
          <polygon class="cls-12" points="187.87 261.02 192.92 262.69 200.54 230.01 193.26 231.72 187.87 261.02"/>
          <polygon class="cls-7" points="187.87 261.02 192.92 262.69 200.54 230.01 193.26 231.72 187.87 261.02"/>
        </g>
      </g>
      <path class="cls-12" d="M160.08,247.03c0,2.14,1.73,3.88,3.87,3.89,2.14,0,3.88-1.73,3.89-3.87,0-2.14-1.73-3.88-3.87-3.89-2.14,0-3.88,1.73-3.89,3.87Z"/>
      <g>
        <g>
          <path class="cls-12" d="M189.36,206.7c.09-.09,9.49-8.8,20.55-5.82,11.31,3.05,20.64,20.08,20.74,20.25l3.14-1.7c-.41-.76-10.15-18.56-22.95-22-13.02-3.51-23.5,6.26-23.94,6.68l2.46,2.59Z"/>
          <path class="cls-2" d="M189.36,206.7c.09-.09,9.49-8.8,20.55-5.82,11.31,3.05,20.64,20.08,20.74,20.25l3.14-1.7c-.41-.76-10.15-18.56-22.95-22-13.02-3.51-23.5,6.26-23.94,6.68l2.46,2.59Z"/>
        </g>
        <path class="cls-12" d="M226.48,238.28l6.77-3.57c-.65-1.23-1.45-3.35-1.57-5.26-.15-2.48.83-3.35,1.91-3.92,2.37-1.25,3.79-.76,4.76-.19,1.36.8,2.74,2.44,3.88,4.61l6.77-3.57c-1.85-3.51-4.13-6.08-6.76-7.63-2.63-1.55-6.88-2.81-12.22,0-4.16,2.2-6.29,6.16-5.98,11.15.24,3.93,1.93,7.4,2.44,8.37Z"/>
      </g>
      <g>
        <path class="cls-1" d="M190.79,194.77c1.47-1.01,2.97-1.97,4.48-2.92,1.5-.95,3.03-1.86,4.56-2.77,1.54-.9,3.07-1.79,4.64-2.65l2.34-1.28c.79-.41,1.57-.83,2.38-1.22-.73.51-1.48.99-2.22,1.49l-2.26,1.43c-1.5.95-3.03,1.86-4.56,2.77-1.54.9-3.07,1.79-4.64,2.65-1.56.86-3.12,1.71-4.72,2.5Z"/>
        <path class="cls-1" d="M186.9,209.38c2.1,1.2,4.09,2.55,6.06,3.94,1.95,1.4,3.88,2.85,5.7,4.45-2.1-1.2-4.09-2.55-6.06-3.94-1.95-1.41-3.88-2.85-5.7-4.45Z"/>
        <path class="cls-1" d="M190.36,207.58c1.62.49,3.22,1.05,4.81,1.62,1.6.56,3.17,1.16,4.75,1.77,1.57.62,3.14,1.24,4.7,1.91l2.33,1c.77.35,1.55.69,2.31,1.06-.81-.24-1.61-.52-2.42-.78l-2.39-.84c-1.6-.56-3.17-1.17-4.75-1.77-1.57-.62-3.14-1.24-4.7-1.91-1.56-.66-3.11-1.33-4.64-2.06Z"/>
        <path class="cls-1" d="M194.96,196.14c1.55-.4,3.12-.74,4.69-1.07,1.57-.33,3.14-.62,4.72-.9,1.58-.27,3.16-.54,4.74-.76l2.38-.33c.8-.09,1.59-.2,2.39-.27-.78.21-1.56.38-2.34.57l-2.35.5c-1.57.33-3.14.62-4.72.9-1.58.27-3.16.54-4.74.76-1.59.23-3.17.45-4.77.6Z"/>
      </g>
      <path class="cls-1" d="M162.5,204.68c.54-2.64,1.86-5.61,4.51-6.77,1.89-.79,4.3.16,5.07,2.07.65,1.24.83,4.32-1.45,3.91-1.39-.86-1.22-2.94-1.23-4.33.29-6.59,5.7-10.93,11.87-7.45,1.59,1,2.9,2.38,3.81,3.97-1.1-1.46-2.46-2.73-4.05-3.54-6.96-3.46-11.72,3.07-10.45,9.65.08.38.32.79.41.81.09,0,.33-.03.46-.36.52-1.42-.37-3.42-1.8-4.03-3.69-1.41-6.2,3.07-7.14,6.06h0Z"/>
      <path class="cls-1" d="M99.81,222.04c2.41-4.77,9.5-6.81,13.37-2.52,1.85,1.96,2.93,4.61,2.79,7.34-.04,1.01-.63,2.57-1.94,2.57-1.28.11-2.31-1.05-2.27-2.28.1-3.43,2.53-6.32,5.15-8.3,4.28-3.33,11.02-2.65,14.28,1.79,1.58,2.07,2.53,4.57,2.87,7.13-2.56-12.43-16.09-13.92-21.03-2.38-.3.91-.63,2.39.28,2.94,1.11.6,1.71-.49,1.76-1.57.04-9.22-9.94-12.31-15.26-4.74h0Z"/>
      <path class="cls-1" d="M70.93,71.27c-.2-4.47-2.16-11.52-7.77-10.86-2.27.36-4.23,2.86-4,5.11.06.53.42.85.74.82,1.36-.77,1.78-3.07,2.12-4.59.93-4.73-.15-10.75-5.06-12.78-4.69-2.33-10.27-.3-14.04,2.95,1.82-1.83,4.08-3.25,6.58-4.05,9.62-2.53,15.22,4.98,13.51,14.06-.34,1.62-.79,3.35-1.9,4.68-.26.26-.56.57-1.09.66-2.91-.12-1.69-4.19-.49-5.52,1.66-2.32,5.15-2.79,7.43-1.13,3.22,2.44,4.05,6.89,3.96,10.67h0Z"/>
      <path class="cls-5" d="M208.79,103.84c-4.39-.85-11.7-.59-12.38,5.02-.18,2.3,1.79,4.78,4.03,5.08.53.07.93-.21.97-.53-.43-1.51-2.57-2.45-3.97-3.14-4.38-2-10.49-2.36-13.6,1.94-3.36,4.02-2.69,9.92-.41,14.35-1.36-2.19-2.21-4.73-2.41-7.35-.22-9.94,8.39-13.63,16.82-9.85,1.5.71,3.07,1.55,4.11,2.93.2.32.42.68.38,1.21-.8,2.8-4.46.67-5.48-.82-1.87-2.15-1.51-5.65.63-7.49,3.13-2.56,7.64-2.33,11.3-1.36h0Z"/>
      <path class="cls-1" d="M170.13,63.44c-1.89-6.12,2.47-13.7,9.33-13.27,3.19.13,6.33,1.5,8.47,3.92,1.31,1.42,1.61,3.72-.67,4.44-3.52.63-4.92-4.77-5.21-7.39-1.12-8.33,4.99-16.3,13.79-15.12,3.08.43,5.99,1.77,8.44,3.66-3.78-2.47-8.51-4.03-12.95-2.75-7.65,2.14-10.3,11.64-7.14,18.37.52,1.07,1.51,2.65,2.82,2.33,1.55-.46,1.13-1.94.24-2.97-2.86-3.26-8.08-4.77-12.09-2.84-4.09,2.06-5.92,7.21-5.02,11.61h0Z"/>
      <g>
        <path class="cls-9" d="M97.72,222.17c-1.4-.44-2.89.34-3.33,1.73-.44,1.4.34,2.89,1.74,3.33,1.4.44,2.89-.34,3.33-1.73.44-1.4-.33-2.89-1.73-3.33ZM99.15,225.41c-.39,1.23-1.7,1.91-2.92,1.52-1.23-.39-1.91-1.7-1.52-2.92.39-1.23,1.7-1.91,2.92-1.52,1.23.39,1.91,1.69,1.52,2.92ZM97.72,222.17c-1.4-.44-2.89.34-3.33,1.73-.44,1.4.34,2.89,1.74,3.33,1.4.44,2.89-.34,3.33-1.73.44-1.4-.33-2.89-1.73-3.33ZM99.15,225.41c-.39,1.23-1.7,1.91-2.92,1.52-1.23-.39-1.91-1.7-1.52-2.92.39-1.23,1.7-1.91,2.92-1.52,1.23.39,1.91,1.69,1.52,2.92ZM97.72,222.17c-1.4-.44-2.89.34-3.33,1.73-.44,1.4.34,2.89,1.74,3.33,1.4.44,2.89-.34,3.33-1.73.44-1.4-.33-2.89-1.73-3.33ZM99.15,225.41c-.39,1.23-1.7,1.91-2.92,1.52-1.23-.39-1.91-1.7-1.52-2.92.39-1.23,1.7-1.91,2.92-1.52,1.23.39,1.91,1.69,1.52,2.92ZM98.61,219.37c-2.95-.93-6.09.71-7.02,3.66-.93,2.95.71,6.09,3.66,7.02,2.95.93,6.09-.71,7.02-3.66.93-2.95-.71-6.09-3.65-7.02ZM99.85,225.63c-.51,1.61-2.23,2.51-3.85,2.01-1.61-.51-2.51-2.23-2-3.85.51-1.61,2.24-2.51,3.85-2,1.61.51,2.51,2.23,2,3.85ZM99.45,225.5c.44-1.4-.33-2.89-1.73-3.33-1.4-.44-2.89.34-3.33,1.73-.44,1.4.34,2.89,1.74,3.33,1.4.44,2.89-.34,3.33-1.73ZM99.15,225.41c-.39,1.23-1.7,1.91-2.92,1.52-1.23-.39-1.91-1.7-1.52-2.92.39-1.23,1.7-1.91,2.92-1.52,1.23.39,1.91,1.69,1.52,2.92ZM97.72,222.17c-1.4-.44-2.89.34-3.33,1.73-.44,1.4.34,2.89,1.74,3.33,1.4.44,2.89-.34,3.33-1.73.44-1.4-.33-2.89-1.73-3.33ZM99.15,225.41c-.39,1.23-1.7,1.91-2.92,1.52-1.23-.39-1.91-1.7-1.52-2.92.39-1.23,1.7-1.91,2.92-1.52,1.23.39,1.91,1.69,1.52,2.92ZM97.72,222.17c-1.4-.44-2.89.34-3.33,1.73-.44,1.4.34,2.89,1.74,3.33,1.4.44,2.89-.34,3.33-1.73.44-1.4-.33-2.89-1.73-3.33ZM99.15,225.41c-.39,1.23-1.7,1.91-2.92,1.52-1.23-.39-1.91-1.7-1.52-2.92.39-1.23,1.7-1.91,2.92-1.52,1.23.39,1.91,1.69,1.52,2.92Z"/>
        <g>
          <polygon class="cls-9" points="96.34 230.15 94.29 229.5 93.94 230.99 95.77 231.56 96.34 230.15"/>
          <polygon class="cls-9" points="92.65 228.22 91.66 226.32 90.36 227.12 91.24 228.82 92.65 228.22"/>
          <polygon class="cls-9" points="91.4 224.26 92.05 222.2 90.56 221.86 89.98 223.69 91.4 224.26"/>
          <polygon class="cls-9" points="93.32 220.57 95.23 219.57 94.42 218.28 92.73 219.16 93.32 220.57"/>
          <polygon class="cls-9" points="97.29 219.32 99.34 219.97 99.69 218.48 97.86 217.9 97.29 219.32"/>
          <polygon class="cls-9" points="100.98 221.24 101.97 223.15 103.27 222.34 102.38 220.64 100.98 221.24"/>
          <polygon class="cls-9" points="102.23 225.21 101.58 227.26 103.07 227.61 103.64 225.78 102.23 225.21"/>
          <polygon class="cls-9" points="100.3 228.9 98.4 229.89 99.21 231.19 100.9 230.3 100.3 228.9"/>
        </g>
      </g>
      <g>
        <g>
          <path class="cls-1" d="M193.53,203.6c2-2.69,1.43-6.49-1.26-8.49-2.69-2-6.49-1.44-8.49,1.26-2,2.69-1.44,6.49,1.26,8.49,2.69,2,6.49,1.43,8.49-1.26ZM190.93,201.67c-.93,1.26-2.71,1.52-3.96.59-1.26-.93-1.52-2.71-.59-3.97.93-1.26,2.71-1.52,3.96-.59,1.26.93,1.52,2.71.59,3.96Z"/>
          <polygon class="cls-1" points="186.13 205.35 184.25 203.96 183.37 205.36 185.04 206.6 186.13 205.35"/>
          <polygon class="cls-1" points="183.03 202.07 182.69 199.76 181.07 200.13 181.38 202.18 183.03 202.07"/>
          <polygon class="cls-1" points="183.16 197.56 184.55 195.68 183.15 194.8 181.91 196.47 183.16 197.56"/>
          <polygon class="cls-1" points="186.44 194.46 188.74 194.12 188.38 192.5 186.32 192.81 186.44 194.46"/>
          <polygon class="cls-1" points="190.95 194.59 192.82 195.98 193.7 194.58 192.03 193.34 190.95 194.59"/>
          <polygon class="cls-1" points="194.04 197.87 194.38 200.17 196 199.81 195.7 197.75 194.04 197.87"/>
          <polygon class="cls-1" points="193.92 202.38 192.53 204.25 193.93 205.13 195.17 203.46 193.92 202.38"/>
          <polygon class="cls-1" points="190.64 205.47 188.33 205.82 188.7 207.43 190.75 207.13 190.64 205.47"/>
        </g>
        <path class="cls-1" d="M186.48,200.27l1.29,1.63,2.05-.3.76-1.93-1.29-1.62-2.05.3-.76,1.93ZM188.93,199.44c.29.22.35.63.14.92-.22.29-.63.35-.92.14-.29-.22-.35-.63-.14-.92.22-.29.63-.35.92-.14Z"/>
      </g>
      <g>
        <path class="cls-1" d="M207.64,37.8c-1.22-.39-2.53.29-2.91,1.52-.39,1.23.29,2.53,1.52,2.91,1.22.39,2.53-.29,2.91-1.52.39-1.22-.29-2.53-1.52-2.91ZM208.89,40.63c-.34,1.08-1.48,1.67-2.56,1.33-1.07-.34-1.67-1.48-1.33-2.56.34-1.07,1.48-1.67,2.56-1.33,1.07.34,1.67,1.48,1.33,2.56ZM207.64,37.8c-1.22-.39-2.53.29-2.91,1.52-.39,1.23.29,2.53,1.52,2.91,1.22.39,2.53-.29,2.91-1.52.39-1.22-.29-2.53-1.52-2.91ZM208.89,40.63c-.34,1.08-1.48,1.67-2.56,1.33-1.07-.34-1.67-1.48-1.33-2.56.34-1.07,1.48-1.67,2.56-1.33,1.07.34,1.67,1.48,1.33,2.56ZM207.64,37.8c-1.22-.39-2.53.29-2.91,1.52-.39,1.23.29,2.53,1.52,2.91,1.22.39,2.53-.29,2.91-1.52.39-1.22-.29-2.53-1.52-2.91ZM208.89,40.63c-.34,1.08-1.48,1.67-2.56,1.33-1.07-.34-1.67-1.48-1.33-2.56.34-1.07,1.48-1.67,2.56-1.33,1.07.34,1.67,1.48,1.33,2.56ZM208.42,35.35c-2.58-.81-5.33.62-6.14,3.2-.81,2.58.62,5.33,3.2,6.14,2.58.81,5.33-.62,6.14-3.2.81-2.58-.62-5.33-3.2-6.14ZM209.51,40.82c-.45,1.41-1.95,2.2-3.37,1.75-1.41-.44-2.2-1.95-1.75-3.37.45-1.41,1.96-2.2,3.37-1.75,1.41.44,2.2,1.95,1.75,3.37ZM209.16,40.71c.39-1.22-.29-2.53-1.52-2.91-1.22-.39-2.53.29-2.91,1.52-.39,1.23.29,2.53,1.52,2.91,1.22.39,2.53-.29,2.91-1.52ZM208.89,40.63c-.34,1.08-1.48,1.67-2.56,1.33-1.07-.34-1.67-1.48-1.33-2.56.34-1.07,1.48-1.67,2.56-1.33,1.07.34,1.67,1.48,1.33,2.56ZM207.64,37.8c-1.22-.39-2.53.29-2.91,1.52-.39,1.23.29,2.53,1.52,2.91,1.22.39,2.53-.29,2.91-1.52.39-1.22-.29-2.53-1.52-2.91ZM208.89,40.63c-.34,1.08-1.48,1.67-2.56,1.33-1.07-.34-1.67-1.48-1.33-2.56.34-1.07,1.48-1.67,2.56-1.33,1.07.34,1.67,1.48,1.33,2.56ZM207.64,37.8c-1.22-.39-2.53.29-2.91,1.52-.39,1.23.29,2.53,1.52,2.91,1.22.39,2.53-.29,2.91-1.52.39-1.22-.29-2.53-1.52-2.91ZM208.89,40.63c-.34,1.08-1.48,1.67-2.56,1.33-1.07-.34-1.67-1.48-1.33-2.56.34-1.07,1.48-1.67,2.56-1.33,1.07.34,1.67,1.48,1.33,2.56Z"/>
        <g>
          <polygon class="cls-1" points="206.43 44.78 204.64 44.21 204.34 45.51 205.93 46.02 206.43 44.78"/>
          <polygon class="cls-1" points="203.21 43.09 202.34 41.42 201.2 42.13 201.98 43.62 203.21 43.09"/>
          <polygon class="cls-1" points="202.11 39.62 202.68 37.83 201.38 37.53 200.87 39.12 202.11 39.62"/>
          <polygon class="cls-1" points="203.8 36.4 205.47 35.53 204.76 34.39 203.27 35.17 203.8 36.4"/>
          <polygon class="cls-1" points="207.27 35.3 209.06 35.87 209.36 34.57 207.77 34.06 207.27 35.3"/>
          <polygon class="cls-1" points="210.49 36.98 211.36 38.65 212.5 37.95 211.72 36.46 210.49 36.98"/>
          <polygon class="cls-1" points="211.59 40.46 211.02 42.25 212.32 42.55 212.83 40.96 211.59 40.46"/>
          <polygon class="cls-1" points="209.9 43.68 208.24 44.55 208.94 45.69 210.43 44.91 209.9 43.68"/>
        </g>
      </g>
      <g>
        <path class="cls-1" d="M183.79,126.99c-1.22-.39-2.53.29-2.91,1.52-.39,1.23.29,2.53,1.52,2.91,1.22.39,2.53-.29,2.91-1.52.39-1.22-.29-2.53-1.52-2.91ZM185.03,129.82c-.34,1.08-1.48,1.67-2.56,1.33s-1.67-1.48-1.33-2.56c.34-1.07,1.48-1.67,2.56-1.33,1.07.34,1.67,1.48,1.33,2.56ZM183.79,126.99c-1.22-.39-2.53.29-2.91,1.52-.39,1.23.29,2.53,1.52,2.91,1.22.39,2.53-.29,2.91-1.52.39-1.22-.29-2.53-1.52-2.91ZM185.03,129.82c-.34,1.08-1.48,1.67-2.56,1.33s-1.67-1.48-1.33-2.56c.34-1.07,1.48-1.67,2.56-1.33,1.07.34,1.67,1.48,1.33,2.56ZM183.79,126.99c-1.22-.39-2.53.29-2.91,1.52-.39,1.23.29,2.53,1.52,2.91,1.22.39,2.53-.29,2.91-1.52.39-1.22-.29-2.53-1.52-2.91ZM185.03,129.82c-.34,1.08-1.48,1.67-2.56,1.33s-1.67-1.48-1.33-2.56c.34-1.07,1.48-1.67,2.56-1.33,1.07.34,1.67,1.48,1.33,2.56ZM184.56,124.54c-2.58-.81-5.33.62-6.14,3.2-.81,2.58.62,5.33,3.2,6.14,2.58.81,5.33-.62,6.14-3.2.81-2.58-.62-5.33-3.2-6.14ZM185.65,130.02c-.45,1.41-1.95,2.2-3.37,1.75s-2.2-1.95-1.75-3.37c.45-1.41,1.96-2.2,3.37-1.75,1.41.44,2.2,1.95,1.75,3.37ZM185.3,129.91c.39-1.22-.29-2.53-1.52-2.91-1.22-.39-2.53.29-2.91,1.52-.39,1.23.29,2.53,1.52,2.91,1.22.39,2.53-.29,2.91-1.52ZM185.03,129.82c-.34,1.08-1.48,1.67-2.56,1.33s-1.67-1.48-1.33-2.56c.34-1.07,1.48-1.67,2.56-1.33,1.07.34,1.67,1.48,1.33,2.56ZM183.79,126.99c-1.22-.39-2.53.29-2.91,1.52-.39,1.23.29,2.53,1.52,2.91,1.22.39,2.53-.29,2.91-1.52.39-1.22-.29-2.53-1.52-2.91ZM185.03,129.82c-.34,1.08-1.48,1.67-2.56,1.33s-1.67-1.48-1.33-2.56c.34-1.07,1.48-1.67,2.56-1.33,1.07.34,1.67,1.48,1.33,2.56ZM183.79,126.99c-1.22-.39-2.53.29-2.91,1.52-.39,1.23.29,2.53,1.52,2.91,1.22.39,2.53-.29,2.91-1.52.39-1.22-.29-2.53-1.52-2.91ZM185.03,129.82c-.34,1.08-1.48,1.67-2.56,1.33s-1.67-1.48-1.33-2.56c.34-1.07,1.48-1.67,2.56-1.33,1.07.34,1.67,1.48,1.33,2.56Z"/>
        <g>
          <polygon class="cls-1" points="182.57 133.97 180.78 133.4 180.48 134.71 182.08 135.21 182.57 133.97"/>
          <polygon class="cls-1" points="179.35 132.29 178.48 130.62 177.34 131.32 178.12 132.81 179.35 132.29"/>
          <polygon class="cls-1" points="178.26 128.82 178.82 127.02 177.52 126.72 177.02 128.32 178.26 128.82"/>
          <polygon class="cls-1" points="179.94 125.59 181.61 124.72 180.9 123.59 179.41 124.36 179.94 125.59"/>
          <polygon class="cls-1" points="183.41 124.5 185.2 125.06 185.5 123.76 183.91 123.26 183.41 124.5"/>
          <polygon class="cls-1" points="186.64 126.18 187.5 127.85 188.64 127.14 187.87 125.65 186.64 126.18"/>
          <polygon class="cls-1" points="187.73 129.65 187.16 131.44 188.46 131.75 188.97 130.15 187.73 129.65"/>
          <polygon class="cls-1" points="186.05 132.88 184.38 133.75 185.08 134.88 186.57 134.11 186.05 132.88"/>
        </g>
      </g>
      <g>
        <g>
          <path class="cls-1" d="M47.24,56.78c.96-3.95-1.46-7.93-5.41-8.9-3.95-.96-7.94,1.46-8.9,5.41-.96,3.95,1.46,7.94,5.41,8.9,3.95.96,7.93-1.46,8.9-5.41ZM43.43,55.85c-.45,1.85-2.31,2.98-4.15,2.53-1.85-.45-2.98-2.31-2.53-4.16.45-1.85,2.31-2.98,4.16-2.53,1.85.45,2.98,2.31,2.53,4.15Z"/>
          <polygon class="cls-1" points="39.79 62.23 37.04 61.56 36.72 63.54 39.17 64.14 39.79 62.23"/>
          <polygon class="cls-1" points="34.78 60.02 33.31 57.6 31.68 58.78 32.99 60.93 34.78 60.02"/>
          <polygon class="cls-1" points="32.8 54.92 33.47 52.17 31.48 51.85 30.89 54.3 32.8 54.92"/>
          <polygon class="cls-1" points="35 49.91 37.42 48.44 36.24 46.81 34.09 48.12 35 49.91"/>
          <polygon class="cls-1" points="40.1 47.93 42.85 48.6 43.18 46.61 40.73 46.02 40.1 47.93"/>
          <polygon class="cls-1" points="45.11 50.13 46.58 52.55 48.22 51.37 46.91 49.22 45.11 50.13"/>
          <polygon class="cls-1" points="47.1 55.23 46.43 57.98 48.41 58.3 49.01 55.86 47.1 55.23"/>
          <polygon class="cls-1" points="44.9 60.24 42.48 61.71 43.65 63.34 45.8 62.03 44.9 60.24"/>
        </g>
        <path class="cls-1" d="M37.8,56.38l2.21,1.21,2.15-1.31-.06-2.52-2.21-1.21-2.15,1.31.06,2.52ZM40.14,54.3c.43.1.69.54.59.96-.1.43-.54.69-.96.59-.43-.1-.69-.54-.59-.96.1-.43.54-.69.96-.59Z"/>
      </g>
      <g>
        <g>
          <path class="cls-1" d="M213.67,132.91c-1.68-2.56-2.62-5.43-2.62-8.47,0-10.74,11.79-19.44,26.32-19.44s26.31,8.7,26.31,19.44-11.78,19.44-26.31,19.44c-7.05,0-13.44-2.04-18.16-5.38l-9.07,2.31,3.52-7.89Z"/>
          <path class="cls-4" d="M213.67,132.91c-7.5-11.25,1.46-23.01,12.79-26.52,13.06-4.47,31.9-.7,37.01,13.56,2.95,8.85-3.62,17.59-11.46,21.12-10.1,4.94-24.29,4.06-32.74-2.35,0,0-9.1,2.19-9.1,2.19l-.22.05.09-.2,3.62-7.85h0ZM213.67,132.91l-3.42,7.94-.13-.15,9.04-2.42c9.44,6.2,22.26,6.91,32.47,2,7.43-3.41,13.72-11.64,10.9-20.04-4.99-13.79-23.14-17.28-35.84-13.19-11.12,3.26-20.13,14.72-13.02,25.86h0Z"/>
        </g>
        <g>
          <path class="cls-1" d="M223.83,127.62v1.45h-5.89v-8.48h5.78v1.45h-4.13v2.04h3.57v1.34h-3.57v2.21h4.24Z"/>
          <path class="cls-1" d="M225.12,129.06v-8.48h3.75c.39,0,.75.08,1.08.25.33.16.62.38.85.65.24.27.43.57.56.91.14.34.2.68.2,1.02,0,.55-.14,1.05-.41,1.5-.27.45-.65.77-1.12.97l1.94,3.19h-1.85l-1.73-2.84h-1.62v2.84h-1.65ZM226.77,124.77h2.07c.15,0,.29-.04.42-.11.13-.07.25-.17.34-.29.1-.12.17-.27.23-.44.06-.17.08-.35.08-.54s-.03-.38-.1-.55c-.06-.17-.15-.31-.26-.44-.11-.12-.23-.22-.37-.29-.14-.07-.28-.1-.42-.1h-1.99v2.75Z"/>
          <path class="cls-1" d="M233.06,129.06v-8.48h3.75c.39,0,.75.08,1.08.25.33.16.62.38.85.65.24.27.43.57.56.91.14.34.2.68.2,1.02,0,.55-.14,1.05-.41,1.5-.27.45-.65.77-1.12.97l1.94,3.19h-1.85l-1.73-2.84h-1.62v2.84h-1.65ZM234.71,124.77h2.07c.15,0,.29-.04.42-.11.13-.07.25-.17.34-.29.1-.12.17-.27.23-.44.06-.17.08-.35.08-.54s-.03-.38-.1-.55c-.06-.17-.15-.31-.26-.44-.11-.12-.23-.22-.37-.29-.14-.07-.28-.1-.42-.1h-1.99v2.75Z"/>
          <path class="cls-1" d="M244.63,129.12c-.62,0-1.18-.12-1.69-.36-.51-.24-.94-.57-1.3-.97-.36-.4-.64-.86-.84-1.38-.2-.52-.3-1.05-.3-1.59s.11-1.11.32-1.62c.21-.52.5-.98.87-1.37.37-.4.81-.71,1.32-.95.51-.24,1.06-.35,1.66-.35s1.17.13,1.68.38c.51.25.94.58,1.3.99.36.41.64.87.84,1.39.2.52.3,1.04.3,1.58,0,.57-.1,1.11-.31,1.62-.21.51-.49.97-.86,1.36-.37.39-.8.71-1.31.94-.51.23-1.06.35-1.66.35ZM242.17,124.82c0,.37.06.72.17,1.06.11.34.27.65.48.91s.47.47.78.63c.31.16.65.24,1.05.24s.75-.08,1.06-.24c.31-.16.57-.38.78-.65.21-.27.37-.58.48-.91.11-.34.16-.68.16-1.03s-.06-.72-.17-1.06c-.12-.34-.28-.65-.49-.91-.21-.26-.47-.47-.78-.63-.31-.16-.65-.23-1.03-.23s-.75.08-1.06.25c-.31.16-.57.38-.78.65-.21.27-.36.57-.47.91-.11.34-.16.68-.16,1.03Z"/>
          <path class="cls-1" d="M250.04,129.06v-8.48h3.75c.39,0,.75.08,1.08.25.33.16.62.38.85.65.24.27.43.57.56.91.14.34.2.68.2,1.02,0,.55-.14,1.05-.41,1.5-.27.45-.65.77-1.12.97l1.94,3.19h-1.85l-1.73-2.84h-1.62v2.84h-1.65ZM251.69,124.77h2.07c.15,0,.29-.04.42-.11.13-.07.25-.17.34-.29.1-.12.17-.27.23-.44.06-.17.08-.35.08-.54s-.03-.38-.1-.55c-.06-.17-.15-.31-.26-.44-.11-.12-.23-.22-.37-.29-.14-.07-.28-.1-.42-.1h-1.99v2.75Z"/>
        </g>
      </g>
    </g>
  </g>
</svg>